<?xml version="1.0" standalone="no"?>
<!DOCTYPE svg PUBLIC "-//W3C//DTD SVG 20010904//EN"
 "http://www.w3.org/TR/2001/REC-SVG-20010904/DTD/svg10.dtd">
<svg version="1.0" xmlns="http://www.w3.org/2000/svg"
 width="102.000000pt" height="110.000000pt" viewBox="0 0 102.000000 110.000000"
 preserveAspectRatio="xMidYMid meet">

<g transform="translate(0.000000,110.000000) scale(0.100000,-0.100000)"
fill="#000000" stroke="none">
<path d="M225 920 c-17 -19 -15 -21 50 -87 63 -65 67 -67 81 -49 24 33 16 55
-36 106 -54 55 -68 59 -95 30z"/>
<path d="M585 930 c-115 -12 -148 -22 -162 -51 -7 -13 -9 -27 -4 -32 4 -4 44
-1 87 8 51 10 116 15 183 13 144 -4 139 6 152 -263 7 -127 8 -242 3 -290 l-9
-80 -43 -3 c-39 -3 -42 -5 -36 -25 12 -42 26 -49 73 -44 79 9 81 15 81 266 -1
374 -14 452 -79 486 -36 18 -148 25 -246 15z"/>
<path d="M196 723 c-3 -32 -9 -172 -13 -310 l-6 -253 31 0 c26 0 32 4 32 23 0
72 21 510 26 550 l6 47 -35 0 -34 0 -7 -57z"/>
<path d="M535 773 c-149 -13 -211 -24 -222 -40 -24 -31 -16 -45 25 -42 20 2
36 -1 35 -7 -1 -5 -5 -85 -9 -177 l-7 -167 -26 -7 c-36 -8 -51 -22 -51 -48 l0
-22 123 23 c67 12 152 25 190 29 l67 7 0 -56 0 -56 35 0 35 0 0 60 0 60 45 0
c43 0 45 1 45 30 0 29 -2 30 -45 30 l-45 0 -1 38 c-1 20 -4 94 -7 165 -7 126
-7 127 15 127 37 0 53 11 53 36 0 24 0 24 -107 22 -60 -1 -126 -3 -148 -5z
m115 -87 l0 -33 -91 -8 c-51 -4 -98 -9 -106 -12 -11 -4 -14 3 -11 33 l3 39 55
6 c30 3 76 6 103 7 l47 2 0 -34z m10 -131 c0 -20 -6 -37 -12 -39 -7 -3 -59 -7
-115 -10 l-103 -6 0 34 c0 32 3 36 33 40 56 10 90 13 145 15 l52 1 0 -35z m0
-134 l0 -39 -97 -11 c-54 -7 -106 -14 -115 -17 -15 -5 -18 2 -18 39 l0 45 73
6 c39 4 90 8 112 9 22 2 41 4 43 5 1 1 2 -15 2 -37z"/>
</g>
</svg>
